<svg width="1440" height="312" viewBox="0 0 1440 312" fill="none" xmlns="http://www.w3.org/2000/svg">
<path fill-rule="evenodd" clip-rule="evenodd" d="M0 95.0733L48 124.073C96 153.073 192 210.073 288 225.073C384 239.073 480 210.073 576 181.073C672 153.073 768 124.073 864 88.0733C960 52.0733 1056 9.07334 1152 1.07334C1248 -5.92666 1344 23.0733 1392 37.0733L1440 52.0733V311.073H1392C1344 311.073 1248 311.073 1152 311.073C1056 311.073 960 311.073 864 311.073C768 311.073 672 311.073 576 311.073C480 311.073 384 311.073 288 311.073C192 311.073 96 311.073 48 311.073H0V95.0733Z" fill="#23C7AC"/>
</svg>
